# This file uses centimeters as units for non-parametric coordinates.

mtllib Dice.mtl
v -0.330000 0.032997 0.297003
v -0.320335 0.009665 0.297003
v -0.297003 0.000000 0.297003
v -0.297003 0.009665 0.320335
v -0.297003 0.032997 0.330000
v -0.320335 0.032997 0.320335
v 0.297003 0.000000 0.297003
v 0.320335 0.009665 0.297003
v 0.330000 0.032997 0.297003
v 0.320335 0.032997 0.320335
v 0.297003 0.032997 0.330000
v 0.297003 0.009665 0.320335
v -0.297003 0.660000 0.297003
v -0.320335 0.650335 0.297003
v -0.330000 0.627003 0.297003
v -0.320335 0.627003 0.320335
v -0.297003 0.627003 0.330000
v -0.297003 0.650335 0.320335
v 0.330000 0.627003 0.297003
v 0.320335 0.650335 0.297003
v 0.297003 0.660000 0.297003
v 0.297003 0.650335 0.320335
v 0.297003 0.627003 0.330000
v 0.320335 0.627003 0.320335
v -0.297003 0.627003 -0.330000
v -0.320335 0.627003 -0.320335
v -0.330000 0.627003 -0.297003
v -0.320335 0.650335 -0.297003
v -0.297003 0.660000 -0.297003
v -0.297003 0.650335 -0.320335
v 0.330000 0.627003 -0.297003
v 0.320335 0.627003 -0.320335
v 0.297003 0.627003 -0.330000
v 0.297003 0.650335 -0.320335
v 0.297003 0.660000 -0.297003
v 0.320335 0.650335 -0.297003
v -0.297003 0.000000 -0.297003
v -0.320335 0.009665 -0.297003
v -0.330000 0.032997 -0.297003
v -0.320335 0.032997 -0.320335
v -0.297003 0.032997 -0.330000
v -0.297003 0.009665 -0.320335
v 0.330000 0.032997 -0.297003
v 0.320335 0.009665 -0.297003
v 0.297003 0.000000 -0.297003
v 0.297003 0.009665 -0.320335
v 0.297003 0.032997 -0.330000
v 0.320335 0.032997 -0.320335
v -0.315780 0.014220 0.315780
v 0.315780 0.014220 0.315780
v -0.315780 0.645780 0.315780
v 0.315780 0.645780 0.315780
v -0.315780 0.645780 -0.315780
v 0.315780 0.645780 -0.315780
v -0.315780 0.014220 -0.315780
v 0.315780 0.014220 -0.315780
vt 0.377919 0.497411
vt 0.145922 0.504283
vt 0.387519 0.505605
vt 0.612481 0.505605
vt 0.370973 0.513848
vt 0.379256 0.513868
vt 0.379257 0.738830
vt 0.628937 0.504267
vt 0.622050 0.272272
vt 0.612501 0.513847
vt 0.620744 0.513868
vt 0.620744 0.738829
vt 0.370974 0.738851
vt 0.371065 0.748430
vt 0.377934 0.980428
vt 0.387499 0.755376
vt 0.387520 0.747093
vt 0.612502 0.738850
vt 0.612481 0.747092
vt 0.612502 0.755375
vt 0.622082 0.755285
vt 0.854079 0.748415
vt 0.145972 0.738852
vt 0.136407 0.738901
vt 0.377952 0.254258
vt 0.387499 0.029207
vt 0.387449 0.019643
vt 0.612503 0.980378
vt 0.612552 0.989942
vt 0.612501 0.029207
vt 0.622065 0.029159
vt 0.854030 0.513847
vt 0.863594 0.513798
vt 0.387499 0.272320
vt 0.387470 0.263265
vt 0.612501 0.254210
vt 0.371064 0.504268
vt 0.379683 0.506033
vt 0.387499 0.497322
vt 0.620345 0.262040
vt 0.622048 0.254258
vt 0.387499 0.513848
vt 0.620345 0.264487
vt 0.612530 0.263265
vt 0.612501 0.497322
vt 0.622081 0.497411
vt 0.620317 0.506032
vt 0.629027 0.513847
vt 0.612501 0.272320
vt 0.862075 0.505804
vt 0.854078 0.504281
vt 0.379655 0.262040
vt 0.377920 0.755286
vt 0.379684 0.746666
vt 0.387499 0.254210
vt 0.387499 0.738850
vt 0.137925 0.505806
vt 0.136406 0.513800
vt 0.629027 0.738850
vt 0.628937 0.748430
vt 0.620317 0.746665
vt 0.145971 0.513849
vt 0.379655 0.264487
vt 0.377950 0.272272
vt 0.620546 0.988423
vt 0.377935 0.029159
vt 0.379455 0.021164
vt 0.145923 0.748417
vt 0.137926 0.746895
vt 0.387500 0.980379
vt 0.387451 0.989943
vt 0.379457 0.988424
vt 0.854030 0.738850
vt 0.863594 0.738899
vt 0.862075 0.746893
vt 0.612551 0.019643
vt 0.620545 0.021164
vt 0.622069 0.980426
vn -0.015460 -0.999761 -0.015460
vn 0.015460 -0.999761 -0.015460
vn 0.015460 -0.999761 0.015460
vn -0.015460 -0.999761 0.015460
vn 0.015460 -0.015460 0.999761
vn 0.015460 0.015460 0.999761
vn -0.015460 0.015460 0.999761
vn -0.015460 -0.015460 0.999761
vn -0.999761 0.015460 0.015460
vn -0.999761 0.015460 -0.015460
vn -0.999761 -0.015460 -0.015460
vn -0.999761 -0.015460 0.015460
vn 0.999761 -0.015460 -0.015460
vn 0.999761 0.015460 -0.015460
vn 0.999761 0.015460 0.015460
vn 0.999761 -0.015460 0.015460
vn 0.015460 0.999761 0.015460
vn 0.015460 0.999761 -0.015460
vn -0.015460 0.999761 -0.015460
vn -0.015460 0.999761 0.015460
vn 0.015460 0.015460 -0.999761
vn 0.015460 -0.015460 -0.999761
vn -0.015460 -0.015460 -0.999761
vn -0.015460 0.015460 -0.999761
vn -0.707066 -0.707066 0.010716
vn -0.707066 -0.707066 -0.010716
vn -0.010716 -0.707066 0.707066
vn 0.010716 -0.707066 0.707066
vn -0.707066 -0.010716 0.707066
vn -0.707066 0.010716 0.707066
vn 0.707066 -0.707066 0.010716
vn 0.707066 -0.707066 -0.010716
vn 0.707066 -0.010716 0.707066
vn 0.707066 0.010716 0.707066
vn -0.707066 0.707066 0.010716
vn -0.707066 0.707066 -0.010716
vn -0.010716 0.707066 0.707066
vn 0.010716 0.707066 0.707066
vn 0.707066 0.707066 0.010716
vn 0.707066 0.707066 -0.010716
vn -0.707066 0.010716 -0.707066
vn -0.707066 -0.010716 -0.707066
vn -0.010716 0.707066 -0.707066
vn 0.010716 0.707066 -0.707066
vn 0.707066 0.010716 -0.707066
vn 0.707066 -0.010716 -0.707066
vn -0.010716 -0.707066 -0.707066
vn 0.010716 -0.707066 -0.707066
vn -0.577350 -0.577350 0.577350
vn 0.577350 -0.577350 0.577350
vn -0.577350 0.577350 0.577350
vn 0.577350 0.577350 0.577350
vn -0.577350 0.577350 -0.577350
vn 0.577350 0.577350 -0.577350
vn -0.577350 -0.577350 -0.577350
vn 0.577350 -0.577350 -0.577350
s 1
usemtl initialShadingGroup
f 37/34/1 45/49/2 7/45/3 3/39/4
f 11/10/5 23/18/6 17/56/7 5/42/8
f 15/13/9 27/23/10 39/62/11 1/5/12
f 43/32/13 31/73/14 19/59/15 9/48/16
f 21/20/17 35/28/18 29/70/19 13/16/20
f 33/30/21 47/36/22 41/55/23 25/26/24
f 3/39/4 2/1/25 38/64/26 37/34/1
f 2/37/25 1/5/12 39/62/11 38/2/26
f 5/42/8 4/3/27 12/4/28 11/10/5
f 4/3/27 3/39/4 7/45/3 12/4/28
f 1/5/12 6/6/29 16/7/30 15/13/9
f 6/6/29 5/42/8 17/56/7 16/7/30
f 9/48/16 8/8/31 44/51/32 43/32/13
f 8/46/31 7/45/3 45/49/2 44/9/32
f 11/10/5 10/11/33 24/12/34 23/18/6
f 10/11/33 9/48/16 19/59/15 24/12/34
f 15/13/9 14/14/35 28/68/36 27/23/10
f 14/53/35 13/16/20 29/70/19 28/15/36
f 13/16/20 18/17/37 22/19/38 21/20/17
f 18/17/37 17/56/7 23/18/6 22/19/38
f 21/20/17 20/21/39 36/78/40 35/28/18
f 20/60/39 19/59/15 31/73/14 36/22/40
f 27/23/10 26/24/41 40/58/42 39/62/11
f 26/66/41 25/26/24 41/55/23 40/25/42
f 25/26/24 30/27/43 34/76/44 33/30/21
f 30/71/43 29/70/19 35/28/18 34/29/44
f 33/30/21 32/31/45 48/41/46 47/36/22
f 32/74/45 31/73/14 43/32/13 48/33/46
f 37/34/1 42/35/47 46/44/48 45/49/2
f 42/35/47 41/55/23 47/36/22 46/44/48
f 6/6/29 1/5/12 2/37/25 49/38/49
f 2/1/25 3/39/4 4/3/27 49/38/49
f 4/3/27 5/42/8 6/6/29 49/38/49
f 12/4/28 7/45/3 8/46/31 50/47/50
f 8/8/31 9/48/16 10/11/33 50/47/50
f 10/11/33 11/10/5 12/4/28 50/47/50
f 18/17/37 13/16/20 14/53/35 51/54/51
f 14/14/35 15/13/9 16/7/30 51/54/51
f 16/7/30 17/56/7 18/17/37 51/54/51
f 24/12/34 19/59/15 20/60/39 52/61/52
f 20/21/39 21/20/17 22/19/38 52/61/52
f 22/19/38 23/18/6 24/12/34 52/61/52
f 30/27/43 25/26/24 26/66/41 53/67/53
f 26/24/41 27/23/10 28/68/36 53/69/53
f 28/15/36 29/70/19 30/71/43 53/72/53
f 36/22/40 31/73/14 32/74/45 54/75/54
f 32/31/45 33/30/21 34/76/44 54/77/54
f 34/29/44 35/28/18 36/78/40 54/65/54
f 42/35/47 37/34/1 38/64/26 55/63/55
f 38/2/26 39/62/11 40/58/42 55/57/55
f 40/25/42 41/55/23 42/35/47 55/52/55
f 48/33/46 43/32/13 44/51/32 56/50/56
f 44/9/32 45/49/2 46/44/48 56/43/56
f 46/44/48 47/36/22 48/41/46 56/40/56